# xmcd
#
# Track frame offsets:
#	150
#	11938
#	22589
#	32937
#	43716
#	55252
#	67975
#	74976
#	83486
#	96863
#	108420
#	120527
#	133599
#	147721
#	157388
#	177375
#	189737
#	201531
#	219364
#	231927
#	242487
#	256200
#	272055
#	286958
#
# Disc length: 3989 seconds
#
# Revision: 2
# Processed by: cddbd v1.5.1PL0 Copyright (c) Steve Scherf et al.
# Submitted via: audiograbber 1.83.01
#
DISCID=710f9318
DTITLE=Various Artist - Happy Trails and Honky Tonks - The History Of Country Music - CD
DTITLE=2
DYEAR=2001
DGENRE=Country
TTITLE0=Waylon Jennings - Crying
TTITLE1=Waylon Jennings - Dream Baby
TTITLE2=Waylon Jennings - Lorena
TTITLE3=Waylon Jennings - Sally Was A Good Girl
TTITLE4=Willie Nelson - December Day
TTITLE5=Willie Nelson - Any Old Arm Won't Do
TTITLE6=Willie Nelson - Both Ends Of The Candle
TTITLE7=Willie Nelson - Slow Down Old World
TTITLE8=Dolly Parton - Everything's Beautiful
TTITLE9=Dolly Parton - I'm Not Worth The Tears
TTITLE10=Dolly Parton - Fuel To The Flame
TTITLE11=Dolly Parton - Daddy Won't Be Here Anymore
TTITLE12=Glen Campbell - Rhinestone Cowboy
TTITLE13=Glen Campbell - Gentle On My Mind
TTITLE14=Glen Campbell - Wichita Lineman-Galveston-Country Boy
TTITLE15=Glen Campbell - By The Time I Get To Phoenix
TTITLE16=Kenny Rogers - Me And Bobby McGee
TTITLE17=Kenny Rogers - Something's Burning
TTITLE18=Kenny Rogers - Ruben James
TTITLE19=Kenny Rogers - She Even Woke Me Up To Say Goodbye
TTITLE20=Flying Burrito Bros - Another Shade Of Grey
TTITLE21=Flying Burrito Bros - Midnight Magic Woman
TTITLE22=Flying Burrito Bros - Tell Me It Ain't So
TTITLE23=Flying Burrito Bros - Why Must The Ending Be So Sad?
EXTD=YEAR: 2001
EXTT0=
EXTT1=
EXTT2=
EXTT3=
EXTT4=
EXTT5=
EXTT6=
EXTT7=
EXTT8=
EXTT9=
EXTT10=
EXTT11=
EXTT12=
EXTT13=
EXTT14=
EXTT15=
EXTT16=
EXTT17=
EXTT18=
EXTT19=
EXTT20=
EXTT21=
EXTT22=
EXTT23=
PLAYORDER=
